<svg xmlns="http://www.w3.org/2000/svg" viewBox="0 0 50 50" enable-background="new 0 0 50 50" width="50" height="50">
    <path style="text-indent:0;text-align:start;line-height:normal;text-transform:none;block-progression:tb;-inkscape-font-specification:Bitstream Vera Sans" d="M 28 2 C 21.954545 2 17 6.9545455 17 13 L 17 31 L 4 31 A 1.0001 1.0001 0 0 0 3 32 C 3 37.021212 7.6274262 43 16 43 C 17.821016 43 19.612946 42.632028 21.25 41.90625 C 21.301633 41.926629 21.354309 41.948874 21.40625 41.96875 L 20.6875 43.40625 L 20.59375 43.5625 L 19.1875 45.40625 A 1.0001 1.0001 0 0 0 20 47 L 27 47 A 1.0001 1.0001 0 0 0 27.46875 46.875 A 1.0001 1.0001 0 0 0 27.5 46.875 A 1.0001 1.0001 0 0 0 28 47 L 35 47 A 1.0001 1.0001 0 0 0 35.625 45.21875 L 33.3125 43.375 L 32.625 41.96875 C 38.67868 39.688279 43 33.852399 43 27 C 43 23.302026 41.805812 19.919359 39.71875 17.25 C 41.27274 16.471899 44.335051 14.510118 45.9375 10.34375 A 1.0001 1.0001 0 0 0 45.90625 9.59375 C 43.816971 4.9973353 40.522764 2 36 2 L 28 2 z M 28 4 L 36 4 C 36.348567 4 36.672175 4.0530959 37 4.09375 L 37 16.875 A 1.0001 1.0001 0 0 0 37 17 C 37 19.537879 36.211228 21.771968 34.71875 23.375 C 33.226272 24.978032 31.019231 26 28 26 A 1.0001 1.0001 0 0 0 27 27 C 27 32.072222 25.655831 35.565805 23.65625 37.78125 C 21.656669 39.996695 18.965625 41 16 41 C 9.1901222 41 5.7652234 36.642283 5.21875 33 L 18 33 A 1.0001 1.0001 0 0 0 19 32 L 19 13 C 19 8.0454545 23.045455 4 28 4 z M 39 4.625 C 40.734377 5.3953035 42.157069 6.8676796 43.34375 9 L 39 9 L 39 4.625 z M 28 6 C 24.145852 6 21 9.1458513 21 13 C 21 16.854148 24.145852 20 28 20 C 31.854148 20 35 16.854148 35 13 C 35 9.1458513 31.854148 6 28 6 z M 28 8 C 30.773268 8 33 10.226732 33 13 C 33 15.773268 30.773268 18 28 18 C 25.57339 18 23.557876 16.284083 23.09375 14 L 28 14 L 31 14 C 31 11.8 29.2 10 27 10 L 27 12 L 23.09375 12 C 23.557876 9.7159167 25.57339 8 28 8 z M 39 11 L 43.375 11 C 42.106448 13.254781 40.249828 14.635295 39 15.375 L 39 11 z M 38.71875 19.28125 C 40.175306 21.45515 41 24.090458 41 27 C 41 34.761847 34.761847 41 27 41 C 25.803855 41 24.65527 40.814705 23.5625 40.53125 C 24.124155 40.1038 24.664857 39.638191 25.15625 39.09375 C 27.428683 36.575997 28.791775 32.808907 28.9375 27.8125 C 31.945405 27.593919 34.462433 26.569285 36.15625 24.75 C 37.53912 23.264696 38.366705 21.359321 38.71875 19.28125 z M 25.0625 42.84375 C 25.701817 42.924961 26.335619 43 27 43 C 27.670782 43 28.319678 42.95511 28.96875 42.875 L 28.6875 43.40625 L 28.59375 43.5625 L 27.4375 45.0625 L 25.3125 43.375 L 25.0625 42.84375 z M 23 43.21875 L 23.59375 44.4375 A 1.0001 1.0001 0 0 0 23.875 44.78125 L 24.15625 45 L 22 45 L 22.3125 44.59375 A 1.0001 1.0001 0 0 0 22.40625 44.4375 L 23 43.21875 z M 31 43.21875 L 31.59375 44.4375 A 1.0001 1.0001 0 0 0 31.875 44.78125 L 32.15625 45 L 30 45 L 30.3125 44.59375 A 1.0001 1.0001 0 0 0 30.40625 44.4375 L 31 43.21875 z"/>
</svg>