<svg xmlns="http://www.w3.org/2000/svg" viewBox="0 0 50 50" width="50" height="50">
    <path style="line-height:normal;text-indent:0;text-align:start;text-decoration-line:none;text-decoration-style:solid;text-decoration-color:#000;text-transform:none;block-progression:tb;isolation:auto;mix-blend-mode:normal" d="M 25 1 C 22.987993 1 21.341282 2.1163246 20.257812 3.640625 C 19.545493 3.3329111 18.83375 3 18 3 C 15.752241 3 13.848002 4.2846147 12.824219 6.1230469 C 12.549806 6.0775336 12.302028 6 12 6 C 8.6983746 6 6 8.6983746 6 12 C 6 12.152766 6.0387082 12.28607 6.0507812 12.433594 C 3.7167899 13.255233 2 15.393993 2 18 C 2 19.068724 2.3514885 20.026829 2.8417969 20.888672 C 1.771641 21.968127 1 23.359294 1 25 C 1 26.857436 1.9512178 28.419867 3.28125 29.517578 C 3.1515925 29.997061 3 30.468792 3 31 C 3 33.606007 4.7167896 35.744767 7.0507812 36.566406 C 7.0387084 36.71393 7 36.847234 7 37 C 7 40.301625 9.6983746 43 13 43 C 13.0093 43 13.006595 42.998147 13.015625 42.998047 C 14.069795 44.730336 15.832921 46 18 46 C 18.61836 46 19.14219 45.759989 19.693359 45.583984 C 20.665334 47.578592 22.636646 49 25 49 C 27.363354 49 29.334666 47.578592 30.306641 45.583984 C 30.85781 45.759989 31.38164 46 32 46 C 34.167079 46 35.9302 44.730289 36.984375 42.998047 C 36.993475 42.998132 36.99067 43 37 43 C 40.301625 43 43 40.301625 43 37 C 43 36.847234 42.961289 36.71393 42.949219 36.566406 C 45.283204 35.74472 47 33.606007 47 31 C 47 30.468792 46.848407 29.997061 46.71875 29.517578 C 48.048782 28.419867 49 26.857436 49 25 C 49 23.359294 48.228359 21.968127 47.158203 20.888672 C 47.648512 20.026829 48 19.068724 48 18 C 48 15.752241 46.715385 13.848002 44.876953 12.824219 C 44.922466 12.549806 45 12.302028 45 12 C 45 8.6983746 42.301625 6 39 6 C 38.697972 6 38.450194 6.0775336 38.175781 6.1230469 C 37.151998 4.2846147 35.247759 3 33 3 C 31.899951 3 30.925807 3.3812171 30.044922 3.9003906 C 28.991404 2.1844524 27.156322 1 25 1 z M 25 3 C 26.732645 3 28.177508 4.0965879 28.740234 5.6308594 L 29.248047 7.015625 L 30.347656 6.03125 C 31.063621 5.3906077 31.978333 5 33 5 C 34.708884 5 36.142667 6.0676744 36.720703 7.5664062 L 37.046875 8.4121094 L 37.921875 8.1699219 C 38.300081 8.064621 38.653246 8 39 8 C 41.220375 8 43 9.7796254 43 12 C 43 12.346754 42.93538 12.699919 42.830078 13.078125 L 42.587891 13.953125 L 43.433594 14.279297 C 44.932326 14.857333 46 16.291116 46 18 C 46 18.902318 45.693088 19.718332 45.177734 20.398438 L 44.570312 21.201172 L 45.376953 21.802734 C 46.362392 22.537583 47 23.683619 47 25 C 47 26.429512 46.250608 27.66447 45.125 28.375 L 44.431641 28.8125 L 44.724609 29.576172 C 44.899705 30.034559 45 30.507725 45 31 C 45 32.979195 43.576342 34.595394 41.699219 34.927734 L 40.667969 35.109375 L 40.896484 36.130859 C 40.962196 36.42282 41 36.710333 41 37 C 41 39.220375 39.220375 41 37 41 C 37.009 41 36.90835 40.980391 36.673828 40.962891 L 35.960938 40.910156 L 35.679688 41.566406 C 35.069834 42.994721 33.661676 44 32 44 C 31.364053 44 30.76911 43.838042 30.212891 43.556641 L 29.152344 43.019531 L 28.804688 44.15625 C 28.303285 45.801653 26.810049 47 25 47 C 23.189951 47 21.696715 45.801653 21.195312 44.15625 L 20.847656 43.019531 L 19.787109 43.556641 C 19.23089 43.838042 18.635947 44 18 44 C 16.338324 44 14.930166 42.994725 14.320312 41.566406 L 14.039062 40.910156 L 13.326172 40.962891 C 13.091654 40.980397 12.991015 41 13 41 C 10.779625 41 9 39.220375 9 37 C 9 36.710333 9.0378037 36.42282 9.1035156 36.130859 L 9.3320312 35.109375 L 8.3007812 34.927734 C 6.4236581 34.595394 5 32.979195 5 31 C 5 30.507725 5.1002951 30.034559 5.2753906 29.576172 L 5.5683594 28.8125 L 4.875 28.375 C 3.7493924 27.66447 3 26.429512 3 25 C 3 23.683619 3.6376082 22.537583 4.6230469 21.802734 L 5.4296875 21.201172 L 4.8222656 20.398438 C 4.3069116 19.718332 4 18.902318 4 18 C 4 16.020805 5.4236581 14.404606 7.3007812 14.072266 L 8.3320312 13.890625 L 8.1035156 12.869141 C 8.0378037 12.57718 8 12.289667 8 12 C 8 9.7796254 9.7796254 8 12 8 C 12.346754 8 12.699919 8.064621 13.078125 8.1699219 L 13.953125 8.4121094 L 14.279297 7.5664062 C 14.857333 6.0676743 16.291116 5 18 5 C 18.747171 5 19.436101 5.2172864 20.050781 5.5878906 L 20.96875 6.140625 L 21.457031 5.1875 C 22.123385 3.8893561 23.443505 3 25 3 z M 18.029297 15 A 1.0001 1.0001 0 0 0 17.013672 16.164062 C 17.013672 16.164062 17.073742 16.568333 16.824219 16.996094 C 16.574691 17.423855 16.027778 18 14 18 A 1.0001 1.0001 0 0 0 13.990234 18 C 13.080879 18.0086 11.812562 18.09848 10.705078 18.277344 C 10.151336 18.366774 9.6448332 18.472199 9.1992188 18.634766 C 8.9764115 18.716046 8.7666328 18.805738 8.5410156 18.976562 C 8.3154325 19.147389 8 19.491553 8 20 C 8 21.7346 8.8067247 23.152221 10.076172 23.935547 C 11.161575 24.605306 12.5317 24.844002 14.03125 24.925781 C 14.923537 28.234386 16.307084 31.962106 18.060547 35.025391 C 18.995923 36.659484 20.019921 38.098656 21.152344 39.173828 C 22.284767 40.249 23.571132 41 25 41 C 26.432802 41 27.722464 40.246073 28.857422 39.166016 C 29.99238 38.085959 31.01815 36.640658 31.955078 35 C 33.689896 31.962152 35.050918 28.279116 35.941406 24.996094 C 35.961398 24.996325 35.979938 25 36 25 C 37.87458 25 39.533851 24.761723 40.845703 23.984375 C 42.157555 23.207027 43 21.770889 43 20 C 43 19.491553 42.685823 19.14781 42.460938 18.976562 C 42.236052 18.805315 42.025535 18.716875 41.802734 18.634766 C 41.357133 18.470547 40.851328 18.362101 40.296875 18.271484 C 39.187968 18.09025 37.918624 18 37 18 C 36.699217 18 36.411391 18.003113 36.125 18.007812 A 1.0001 1.0001 0 0 0 36 18 C 34.320565 18 33.721085 17.442671 33.371094 16.933594 C 33.021103 16.424516 33 15.958984 33 15.958984 A 1.0001 1.0001 0 0 0 31.142578 15.486328 C 31.142578 15.486328 30.468815 16.522428 29.552734 16.980469 C 29.094694 17.209489 28.634904 17.309283 28.048828 17.146484 C 27.462752 16.983686 26.692371 16.513901 25.78125 15.375 A 1.0001 1.0001 0 0 0 24.21875 15.375 C 23.307629 16.513901 22.537248 16.983686 21.951172 17.146484 C 21.365096 17.309283 20.905306 17.209494 20.447266 16.980469 C 19.531185 16.522428 18.857422 15.486328 18.857422 15.486328 A 1.0001 1.0001 0 0 0 18.029297 15 z M 25 17.394531 C 25.83479 18.226387 26.674084 18.839047 27.513672 19.072266 C 28.615096 19.378217 29.655306 19.165506 30.447266 18.769531 C 30.970922 18.507703 31.281154 18.159525 31.636719 17.828125 C 31.700169 17.944281 31.642416 17.949685 31.722656 18.066406 C 32.346901 18.974398 33.656533 19.761569 35.546875 19.900391 A 1.0001 1.0001 0 0 0 36.017578 20.009766 C 36.34035 20.003843 36.665797 20 37 20 C 37.778376 20 39.007766 20.08808 39.974609 20.246094 C 40.37073 20.310834 40.66519 20.389962 40.90625 20.462891 C 40.802323 21.321813 40.493451 21.870224 39.826172 22.265625 C 39.028524 22.738277 37.68742 23 36 23 C 35.813828 23 35.599826 22.983022 35.367188 22.951172 A 1.0001 1.0001 0 0 0 34.261719 23.697266 C 33.435894 26.988386 31.963942 30.94838 30.216797 34.007812 C 29.343225 35.537529 28.398557 36.84126 27.478516 37.716797 C 26.558474 38.592336 25.708698 39 25 39 C 24.293368 39 23.446561 38.593547 22.529297 37.722656 C 21.612032 36.851765 20.668749 35.556359 19.796875 34.033203 C 18.053127 30.98689 16.582813 27.041281 15.751953 23.751953 A 1.0001 1.0001 0 0 0 14.794922 22.996094 C 13.16969 22.976735 11.886553 22.702346 11.125 22.232422 C 10.491126 21.841283 10.196202 21.301823 10.09375 20.466797 C 10.334923 20.394853 10.628051 20.315811 11.023438 20.251953 C 11.988559 20.096078 13.212054 20.007926 14 20 C 16.472222 20 17.925309 19.076145 18.550781 18.003906 C 18.555281 17.996206 18.552241 17.990102 18.556641 17.982422 C 18.877447 18.259091 19.114475 18.550401 19.552734 18.769531 C 20.344694 19.165511 21.384904 19.378217 22.486328 19.072266 C 23.325876 18.839043 24.16521 18.226387 25 17.394531 z M 19.003906 23.015625 C 18.406906 23.065625 18 23.26 18 24 C 18 25.104 18.896 26 20 26 C 21.104 26 22 25.104 22 24 C 22 23.26 21.593094 23.065625 20.996094 23.015625 C 20.986094 23.560625 20.546 24 20 24 C 19.454 24 19.013906 23.560625 19.003906 23.015625 z M 29.003906 23.015625 C 28.406906 23.065625 28 23.26 28 24 C 28 25.104 28.896 26 30 26 C 31.104 26 32 25.104 32 24 C 32 23.26 31.593094 23.065625 30.996094 23.015625 C 30.986094 23.560625 30.546 24 30 24 C 29.454 24 29.013906 23.560625 29.003906 23.015625 z M 24 34 A 1.0001 1.0001 0 1 0 24 36 L 26 36 A 1.0001 1.0001 0 1 0 26 34 L 24 34 z" color="#000" font-weight="400" font-family="sans-serif" white-space="normal" overflow="visible"/>
</svg>