<svg xmlns="http://www.w3.org/2000/svg" viewBox="0 0 50 50" enable-background="new 0 0 50 50" width="50" height="50">
    <path style="text-indent:0;text-align:start;line-height:normal;text-transform:none;block-progression:tb;-inkscape-font-specification:Bitstream Vera Sans" d="M 41.75 9 C 41.127511 9.0323914 40.505887 9.1661418 39.90625 9.4375 C 38.020603 10.290224 36.997506 12.233101 36.1875 14.1875 C 35.377494 16.141899 34.782935 18.243448 34.21875 19.65625 C 34.087289 19.985249 33.716776 20.413035 33.28125 20.875 C 33.273694 20.842602 33.258449 20.813358 33.25 20.78125 C 32.941816 19.610063 31.81684 18.840416 30.5 18.6875 C 29.584343 17.011202 28.067777 15.157606 25.5625 14.03125 C 24.215312 13.425563 22.613274 13.042009 20.75 13 C 18.886726 12.95799 16.753299 13.242669 14.34375 14 C 9.016639 15.672868 6.2345501 18.973214 5.09375 22.125 C 4.52335 23.700893 4.3510493 25.227545 4.4375 26.53125 C 4.496297 27.417928 4.6755896 28.161267 4.96875 28.8125 C 4.7439858 28.988669 4.6654423 28.950265 4.4375 29.25 C 4.1505653 29.627307 3.8894474 30.160101 3.84375 30.78125 C 3.8024211 31.343024 3.9932307 31.948592 4.34375 32.53125 C 3.0006902 33.196396 1.5145774 34.28171 0.25 35.65625 A 1.0111011 1.0111011 0 0 0 1.34375 37.28125 C 2.1700444 36.990749 3.3624065 36.831565 4.46875 36.875 C 5.2679436 36.90638 5.8150042 37.132005 6.34375 37.34375 C 6.1163354 38.036928 5.7434638 38.895737 5.3125 39.4375 C 4.7600808 40.131856 4.2990648 40.701983 4.4375 41.625 C 4.506718 42.086509 4.8606664 42.548646 5.25 42.75 C 5.6393336 42.951354 6.0293686 43 6.4375 43 C 7.5660237 43 8.2443218 43.01605 10.375 43 C 10.980563 42.9955 11.76889 42.751129 12.40625 42.125 C 12.944029 41.596697 13.609307 40.616013 14.40625 39.40625 C 21.843899 40.744967 26.476051 39.33635 27.6875 38.90625 C 27.826223 39.356929 27.866703 39.614897 28.25 40.34375 C 28.565614 40.943902 28.96353 41.544704 29.53125 42.0625 C 30.09897 42.580296 30.877158 43 31.78125 43 L 35.34375 43 C 37.219018 43 38.242975 41.700811 37.78125 40.5625 C 36.71857 37.956967 36.164411 36.089128 35.96875 34.6875 C 35.424481 30.781317 37.301967 26.549372 41.15625 22.875 C 42.118536 23.706532 43.330623 24.194 44.5625 24.125 C 46.219064 24.03221 47.876988 23.271523 48.875 21.8125 C 50.759531 19.05745 50.125514 15.390367 48.40625 12.78125 A 1.0111011 1.0111011 0 0 0 48.40625 12.75 C 47.514688 11.397637 46.237204 10.268572 44.75 9.59375 C 44.006398 9.2563389 43.196613 9.0416426 42.375 9 C 42.169597 8.9895892 41.957496 8.9892029 41.75 9 z M 42.28125 11 C 42.811154 11.032712 43.360602 11.189911 43.90625 11.4375 C 44.997546 11.932678 46.037312 12.841363 46.71875 13.875 C 48.071486 15.927883 48.454969 18.8033 47.1875 20.65625 C 46.609512 21.501227 45.516936 22.064538 44.4375 22.125 C 43.358064 22.18546 42.421456 21.798144 41.9375 20.96875 A 1.0111011 1.0111011 0 0 0 40.40625 20.71875 C 35.732611 24.84512 33.277298 30.006245 33.96875 34.96875 C 34.186268 36.526948 34.812112 38.499988 35.78125 40.9375 C 35.7327 40.95695 35.75235 40.96875 35.34375 40.96875 L 31.78125 40.96875 C 31.467842 40.96875 31.184686 40.8762 30.875 40.59375 C 30.565314 40.311296 30.276761 39.841848 30.03125 39.375 C 29.540228 38.441304 29.28125 37.5 29.28125 37.5 A 1.0111011 1.0111011 0 0 0 27.9375 36.78125 C 27.9375 36.78125 22.509133 39.079952 14.125 37.375 A 1.0111011 1.0111011 0 0 0 13.0625 37.8125 C 12.023495 39.422958 11.38414 40.278879 11 40.65625 C 10.61586 41.033621 10.684187 40.966231 10.34375 40.96875 C 8.3619368 40.98368 7.7105439 40.97045 6.6875 40.96875 C 6.748696 40.835704 6.69475 40.91406 6.875 40.6875 C 7.5207296 39.875756 8.6797111 38.469532 8.65625 36.71875 A 1.0111011 1.0111011 0 0 0 8.25 35.90625 C 7.2306931 35.162431 5.8829065 34.896815 4.53125 34.84375 C 4.499152 34.84245 4.469629 34.844749 4.4375 34.84375 C 5.218158 34.363439 5.9521892 34.013857 6.375 33.90625 A 1.015625 1.015625 0 0 0 6.59375 33.8125 C 6.6878031 33.825794 6.7795153 33.86432 6.875 33.875 C 7.8431703 33.983295 8.9580471 33.93458 10.21875 33.78125 C 12.740156 33.474586 15.779071 32.740989 18.5625 31.84375 C 24.010229 30.087672 28.701349 27.539653 31.5 25.25 A 1.0111011 1.0111011 0 0 0 31.71875 25.09375 C 31.894766 24.945578 32.07115 24.78796 32.21875 24.625 C 33.69589 23.407854 35.429076 22.147893 36.125 20.40625 C 36.766815 18.799052 37.292756 16.719351 38.03125 14.9375 C 38.769744 13.155649 39.705647 11.753526 40.75 11.28125 C 41.240984 11.059061 41.751346 10.967288 42.28125 11 z M 20.6875 15 C 22.29882 15.03505 23.622063 15.381937 24.71875 15.875 C 26.912124 16.861126 28.260106 18.538942 28.96875 19.96875 A 1.0111011 1.0111011 0 0 0 30.03125 20.5 C 30.866834 20.37246 31.124747 20.717743 31.28125 21.3125 C 31.437753 21.907257 31.28015 22.795623 30.40625 23.53125 A 1.0111011 1.0111011 0 0 0 30.25 23.65625 C 27.759152 25.701546 23.181005 28.216005 17.9375 29.90625 C 15.257929 30.770011 12.329594 31.497914 10 31.78125 C 8.8352029 31.922918 7.8052047 31.95458 7.09375 31.875 C 6.3822953 31.79542 6.0717522 31.561172 6.09375 31.59375 C 5.8663224 31.256846 5.8645412 31.048413 5.875 30.90625 C 5.885459 30.764087 5.94581 30.622193 6.0625 30.46875 C 6.2958806 30.161864 6.6875 29.9375 6.6875 29.9375 A 1.0111011 1.0111011 0 0 0 7 28.40625 C 6.8371804 28.209307 6.5051118 27.425858 6.4375 26.40625 C 6.3698882 25.386642 6.52915 24.113357 7 22.8125 C 7.9416999 20.210786 10.159861 17.447632 14.96875 15.9375 C 17.201201 15.235831 19.07618 14.964946 20.6875 15 z M 45.5 15 C 44.671573 15 44 15.671573 44 16.5 C 44 17.328427 44.671573 18 45.5 18 C 46.328427 18 47 17.328427 47 16.5 C 47 15.671573 46.328427 15 45.5 15 z" color="#000" overflow="visible" enable-background="accumulate" font-family="Bitstream Vera Sans"/>
</svg>