<svg xmlns="http://www.w3.org/2000/svg" viewBox="0 0 50 50" width="50" height="50">
    <path style="text-indent:0;text-align:start;line-height:normal;text-transform:none;block-progression:tb;-inkscape-font-specification:Sans" d="M 33.65625 6.75 A 1.0001 1.0001 0 0 0 32.90625 7.3125 C 31.9114 9.2828195 32.539972 11.531714 33.5 13.4375 C 34.357583 15.139917 35.513748 16.579035 36.5 17.59375 C 36.43287 19.142966 35.990074 20.19506 35.28125 20.875 C 34.517622 21.607511 33.441085 22 32.125 22 C 31.10807 22 30.072344 21.362001 28.875 20.125 C 27.677656 18.887999 26.392845 17.130554 24.84375 15.34375 C 21.745559 11.770142 17.485572 8 10.6875 8 C 7.8904572 8.0005372 5.4278738 8.8427207 3.6875 10.5625 C 1.9706276 12.259056 1.0252062 14.753063 1 17.875 A 1.0001 1.0001 0 0 0 1 17.96875 C 0.99997842 17.979478 1 17.989257 1 18 A 1.0001 1.0001 0 0 0 1 18.15625 C 1.02111 21.808785 1.8171884 26.554256 4.53125 30.65625 C 5.3528757 31.898043 6.3584174 33.067424 7.5625 34.125 L 6.03125 39.71875 A 1.0001 1.0001 0 0 0 6.90625 40.96875 C 6.90625 40.96875 10.922546 41.268732 13.8125 37.6875 C 15.412033 38.244164 17.182614 38.65841 19.15625 38.875 L 21.125 47.1875 A 1.0001 1.0001 0 0 0 22.46875 47.875 C 22.46875 47.875 24.536464 47.025935 26.0625 44.59375 C 27.004968 43.091651 27.698352 40.937651 27.75 38.0625 C 32.570795 36.601248 35.903669 33.542333 38.0625 30.09375 C 40.05727 26.907242 40.992652 23.471527 41.40625 20.46875 C 42.660122 20.731083 43.914382 20.859106 45.09375 20.6875 C 46.601341 20.468135 48.023397 19.748422 48.84375 18.375 A 1.0001 1.0001 0 0 0 48.34375 16.9375 C 47.598686 16.661025 46.073589 15.531009 44.59375 14.5625 C 43.853831 14.078245 43.094705 13.64425 42.34375 13.34375 C 41.891586 13.162813 41.399977 13.067717 40.90625 13.0625 C 40.350314 11.690104 39.266185 10.557808 38.0625 9.625 C 36.57865 8.4750752 34.957855 7.4787899 34.46875 7.03125 A 1.0001 1.0001 0 0 0 33.75 6.75 A 1.0001 1.0001 0 0 0 33.65625 6.75 z M 34.53125 9.53125 C 35.293681 10.063903 36.003331 10.536209 36.84375 11.1875 C 38.1994 12.238075 39.240739 13.461034 39.34375 14.25 A 1.0001 1.0001 0 0 0 40.75 15.03125 C 40.78473 15.0155 41.074892 14.97987 41.59375 15.1875 C 42.112608 15.395125 42.805169 15.795255 43.5 16.25 C 44.482377 16.892936 45.457907 17.492079 46.4375 18.0625 C 46.007058 18.380471 45.495402 18.619383 44.8125 18.71875 C 43.705091 18.879885 42.303435 18.70481 40.90625 18.3125 A 1.0001 1.0001 0 0 0 39.625 19.1875 C 39.342811 22.128484 38.39115 25.81059 36.375 29.03125 C 34.498711 32.028492 31.734997 34.637177 27.6875 36 C 27.607559 35.047859 27.475911 34.056853 27.25 32.96875 C 29.291751 32.622169 31.15625 31.96875 31.15625 31.96875 A 1.0004882 1.0004882 0 1 0 30.65625 30.03125 A 1.0001 1.0001 0 0 0 30.40625 30.09375 C 30.40625 30.09375 28.054781 31.026731 26.03125 31.1875 A 1.0001 1.0001 0 0 0 25.15625 32.4375 C 26.595631 38.251634 25.595714 41.585685 24.375 43.53125 C 23.820707 44.414679 23.234198 44.929669 22.75 45.3125 L 19.40625 31.375 A 1.0001 1.0001 0 1 0 17.46875 31.84375 L 18.65625 36.78125 C 12.316131 35.91761 8.5327723 33.059879 6.21875 29.5625 C 4.5656708 27.06406 3.6838449 24.219858 3.28125 21.59375 C 3.5142179 21.839969 3.7536891 22.093521 4.03125 22.34375 C 6.2517376 24.345585 9.9861927 26.438842 15.90625 27 A 1.0043849 1.0043849 0 0 0 16.09375 25 C 10.556807 24.475158 7.2902624 22.570415 5.375 20.84375 C 3.6991454 19.332918 3.1261448 18.08447 3 17.78125 C 3.0418769 15.108398 3.8274372 13.220078 5.09375 11.96875 C 6.3956262 10.682279 8.2775428 10.000463 10.6875 10 C 16.760428 10 20.373191 13.229858 23.34375 16.65625 C 24.82903 18.369446 26.094 20.112001 27.4375 21.5 C 28.781 22.887999 30.28993 24 32.125 24 C 33.837915 24 35.456628 23.494489 36.65625 22.34375 C 37.855872 21.193011 38.5625 19.449486 38.5625 17.28125 A 1.0001 1.0001 0 0 0 38.25 16.53125 C 37.391497 15.710191 36.103972 14.164464 35.28125 12.53125 C 34.737383 11.451601 34.526665 10.442413 34.53125 9.53125 z M 16 21 C 15.447715 21 15 21.447715 15 22 C 15 22.552285 15.447715 23 16 23 C 16.552285 23 17 22.552285 17 22 C 17 21.447715 16.552285 21 16 21 z M 9.28125 35.4375 C 10.069266 35.974489 10.916275 36.470849 11.84375 36.90625 C 10.533897 38.358581 9.2807608 38.725658 8.34375 38.84375 L 9.28125 35.4375 z" color="#000" overflow="visible" font-family="Sans"/>
</svg>